<mxfile host="app.diagrams.net" modified="2023-01-04T13:19:30.165Z" agent="5.0 (Windows NT 10.0; Win64; x64) AppleWebKit/537.36 (KHTML, like Gecko) Chrome/108.0.0.0 Safari/537.36 Edg/108.0.1462.46" etag="3SNzPCyFxeMnQOZ26OEP" version="20.8.0" type="github">
  <diagram id="PPTDlAW3ANbvYLia21w0" name="TPP Modules">
    <mxGraphModel dx="1387" dy="916" grid="1" gridSize="10" guides="1" tooltips="1" connect="1" arrows="1" fold="1" page="1" pageScale="1" pageWidth="850" pageHeight="1100" math="0" shadow="0">
      <root>
        <mxCell id="0" />
        <mxCell id="1" parent="0" />
        <mxCell id="zW8D1u1k7IhEF28J8icT-6" value="Agnes Station" style="whiteSpace=wrap;html=1;verticalAlign=top;fillColor=#d5e8d4;strokeColor=#82b366;strokeWidth=1;" parent="1" vertex="1">
          <mxGeometry x="20" y="404" width="120" height="30" as="geometry" />
        </mxCell>
        <mxCell id="zW8D1u1k7IhEF28J8icT-10" value="&lt;b&gt;NTRIP Caster INFRA Ntrip2: 8090&lt;/b&gt;" style="whiteSpace=wrap;html=1;verticalAlign=bottom;fillColor=#dae8fc;strokeColor=#6c8ebf;strokeWidth=1;" parent="1" vertex="1">
          <mxGeometry x="340" y="354" width="230" height="215" as="geometry" />
        </mxCell>
        <mxCell id="zW8D1u1k7IhEF28J8icT-12" value="AGNES GNSS Receiver" style="whiteSpace=wrap;html=1;verticalAlign=top;fillColor=#dae8fc;strokeColor=#6c8ebf;strokeWidth=1;" parent="1" vertex="1">
          <mxGeometry x="340" y="30" width="230" height="220" as="geometry" />
        </mxCell>
        <mxCell id="zW8D1u1k7IhEF28J8icT-13" value="Connects as NTRIP client to 8090" style="edgeStyle=orthogonalEdgeStyle;rounded=0;orthogonalLoop=1;jettySize=auto;html=1;exitX=0.5;exitY=1;exitDx=0;exitDy=0;entryX=0.5;entryY=0;entryDx=0;entryDy=0;" parent="1" source="zW8D1u1k7IhEF28J8icT-12" target="jUfPjewfCuVN3TtyDh5V-1" edge="1">
          <mxGeometry x="-0.3846" relative="1" as="geometry">
            <mxPoint x="180" y="310" as="sourcePoint" />
            <mxPoint x="350" y="310" as="targetPoint" />
            <mxPoint as="offset" />
          </mxGeometry>
        </mxCell>
        <mxCell id="zW8D1u1k7IhEF28J8icT-14" value="DAFI GNSS Receiver" style="whiteSpace=wrap;html=1;verticalAlign=top;fillColor=#dae8fc;strokeColor=#6c8ebf;strokeWidth=1;" parent="1" vertex="1">
          <mxGeometry x="340" y="690" width="230" height="60" as="geometry" />
        </mxCell>
        <mxCell id="zW8D1u1k7IhEF28J8icT-15" value="DAFI Station" style="whiteSpace=wrap;html=1;verticalAlign=top;fillColor=#d5e8d4;strokeColor=#82b366;strokeWidth=1;" parent="1" vertex="1">
          <mxGeometry x="40" y="705" width="120" height="30" as="geometry" />
        </mxCell>
        <mxCell id="zW8D1u1k7IhEF28J8icT-16" value="Connects as Client" style="edgeStyle=orthogonalEdgeStyle;rounded=0;orthogonalLoop=1;jettySize=auto;html=1;exitX=0;exitY=0.5;exitDx=0;exitDy=0;entryX=1;entryY=0.5;entryDx=0;entryDy=0;" parent="1" source="zW8D1u1k7IhEF28J8icT-14" target="zW8D1u1k7IhEF28J8icT-15" edge="1">
          <mxGeometry relative="1" as="geometry">
            <mxPoint x="180" y="950" as="sourcePoint" />
            <mxPoint x="350" y="950" as="targetPoint" />
            <mxPoint as="offset" />
          </mxGeometry>
        </mxCell>
        <mxCell id="zW8D1u1k7IhEF28J8icT-18" value="Data Flow" style="edgeStyle=orthogonalEdgeStyle;rounded=0;orthogonalLoop=1;jettySize=auto;html=1;exitX=1;exitY=1;exitDx=0;exitDy=0;fillColor=#f8cecc;strokeColor=#b85450;fontColor=#FF9999;entryX=0;entryY=1;entryDx=0;entryDy=0;" parent="1" source="zW8D1u1k7IhEF28J8icT-6" target="jUfPjewfCuVN3TtyDh5V-1" edge="1">
          <mxGeometry relative="1" as="geometry">
            <mxPoint x="170" y="394" as="sourcePoint" />
            <mxPoint x="320" y="439" as="targetPoint" />
            <Array as="points">
              <mxPoint x="140" y="459" />
              <mxPoint x="380" y="459" />
            </Array>
          </mxGeometry>
        </mxCell>
        <mxCell id="zW8D1u1k7IhEF28J8icT-19" value="Data Flow" style="edgeStyle=orthogonalEdgeStyle;rounded=0;orthogonalLoop=1;jettySize=auto;html=1;exitX=0.5;exitY=0;exitDx=0;exitDy=0;fillColor=#f8cecc;strokeColor=#b85450;fontColor=#FF9999;entryX=0.25;entryY=1;entryDx=0;entryDy=0;" parent="1" source="jUfPjewfCuVN3TtyDh5V-1" target="zW8D1u1k7IhEF28J8icT-12" edge="1">
          <mxGeometry relative="1" as="geometry">
            <mxPoint x="170" y="330" as="sourcePoint" />
            <mxPoint x="390" y="280" as="targetPoint" />
            <Array as="points">
              <mxPoint x="455" y="400" />
              <mxPoint x="430" y="400" />
              <mxPoint x="430" y="280" />
              <mxPoint x="398" y="280" />
            </Array>
          </mxGeometry>
        </mxCell>
        <mxCell id="zW8D1u1k7IhEF28J8icT-20" value="Data Flow" style="edgeStyle=orthogonalEdgeStyle;rounded=0;orthogonalLoop=1;jettySize=auto;html=1;exitX=1;exitY=1;exitDx=0;exitDy=0;fillColor=#f8cecc;strokeColor=#b85450;entryX=0;entryY=0.75;entryDx=0;entryDy=0;fontColor=#FF9999;" parent="1" source="zW8D1u1k7IhEF28J8icT-15" target="zW8D1u1k7IhEF28J8icT-14" edge="1">
          <mxGeometry relative="1" as="geometry">
            <mxPoint x="210" y="780" as="sourcePoint" />
            <mxPoint x="390" y="780" as="targetPoint" />
            <Array as="points">
              <mxPoint x="270" y="735" />
              <mxPoint x="270" y="735" />
            </Array>
          </mxGeometry>
        </mxCell>
        <mxCell id="jUfPjewfCuVN3TtyDh5V-1" value="*_RAW MountPoint" style="whiteSpace=wrap;html=1;verticalAlign=top;fillColor=#fff2cc;strokeColor=#d6b656;strokeWidth=1;" vertex="1" parent="1">
          <mxGeometry x="380" y="399" width="150" height="40" as="geometry" />
        </mxCell>
        <mxCell id="zW8D1u1k7IhEF28J8icT-11" value="Connects as NTRIP Server to 8090" style="edgeStyle=orthogonalEdgeStyle;rounded=0;orthogonalLoop=1;jettySize=auto;html=1;entryX=0;entryY=0.5;entryDx=0;entryDy=0;" parent="1" source="zW8D1u1k7IhEF28J8icT-6" target="jUfPjewfCuVN3TtyDh5V-1" edge="1">
          <mxGeometry relative="1" as="geometry" />
        </mxCell>
        <mxCell id="jUfPjewfCuVN3TtyDh5V-4" value="*_RTCM MountPoint" style="whiteSpace=wrap;html=1;verticalAlign=top;fillColor=#fff2cc;strokeColor=#d6b656;strokeWidth=1;" vertex="1" parent="1">
          <mxGeometry x="380" y="489" width="150" height="40" as="geometry" />
        </mxCell>
        <mxCell id="jUfPjewfCuVN3TtyDh5V-5" value="RTO Single Station" style="whiteSpace=wrap;html=1;verticalAlign=top;fillColor=#fff2cc;strokeColor=#d6b656;strokeWidth=1;" vertex="1" parent="1">
          <mxGeometry x="380" y="80" width="150" height="40" as="geometry" />
        </mxCell>
        <mxCell id="jUfPjewfCuVN3TtyDh5V-6" value="Connects as TCP client to 7xxx" style="edgeStyle=orthogonalEdgeStyle;rounded=0;orthogonalLoop=1;jettySize=auto;html=1;exitX=1;exitY=0.5;exitDx=0;exitDy=0;entryX=1;entryY=0.5;entryDx=0;entryDy=0;" edge="1" parent="1" source="jUfPjewfCuVN3TtyDh5V-5" target="jUfPjewfCuVN3TtyDh5V-4">
          <mxGeometry x="-0.3846" relative="1" as="geometry">
            <mxPoint x="465" y="260" as="sourcePoint" />
            <mxPoint x="465" y="409" as="targetPoint" />
            <mxPoint as="offset" />
          </mxGeometry>
        </mxCell>
        <mxCell id="jUfPjewfCuVN3TtyDh5V-8" value="Data Flow" style="edgeStyle=orthogonalEdgeStyle;rounded=0;orthogonalLoop=1;jettySize=auto;html=1;exitX=1;exitY=0.5;exitDx=0;exitDy=0;fillColor=#f8cecc;strokeColor=#b85450;fontColor=#FF9999;entryX=1;entryY=0.5;entryDx=0;entryDy=0;" edge="1" parent="1" source="jUfPjewfCuVN3TtyDh5V-5" target="jUfPjewfCuVN3TtyDh5V-4">
          <mxGeometry relative="1" as="geometry">
            <mxPoint x="150" y="444" as="sourcePoint" />
            <mxPoint x="820" y="410" as="targetPoint" />
            <Array as="points">
              <mxPoint x="560" y="100" />
              <mxPoint x="560" y="509" />
            </Array>
          </mxGeometry>
        </mxCell>
      </root>
    </mxGraphModel>
  </diagram>
</mxfile>
